<svg xmlns="http://www.w3.org/2000/svg" version="1.1" xmlns:xlink="http://www.w3.org/1999/xlink" viewBox="0 0 16.459376851551674 12.140683453051524"><g transform="matrix(1,0,0,1,1.1752755839789621,9.861407869072561)"><g transform="matrix(-1,0,0,1,9.976446315448067,0)" clip-path="url(#SvgjsClipPath1001)"><g clip-path="url(#a617cf97d-e28f-47da-acc7-20cc25fce6a7cdc03c75-1d45-4689-8b52-2b87d89d50cd)"><path d=" M 4.9881138305869035 -8.56513732729875 C 2.376860454419468 -8.56513732729875 0.2239324111906199 -7.833676440918317 0.2026239637589866 -7.82631534089648 L 0.12087701088490191 -7.798226932918418 L 0.12087701088490191 -7.711830864241068 C 0.12087701088490191 -3.132645511183056 2.7449154555113173 -1.2050058712541123 4.946271788357515 -0.3945100162181667 L 4.9881138305869035 -0.37901296354061564 L 5.029955872816293 -0.3945100162181667 C 7.231312205662489 -1.2050058712541123 9.855350650288905 -3.132645511183055 9.855350650288905 -7.711830864241067 L 9.855350650288905 -7.798226932918418 L 9.77360369741482 -7.82631534089648 C 9.752295249983188 -7.833676440918317 7.599367206754339 -8.56513732729875 4.9881138305869035 -8.56513732729875" fill="#0e0904" transform="matrix(1,0,0,1,0,0)" fill-rule="nonzero"></path></g><g clip-path="url(#a617cf97d-e28f-47da-acc7-20cc25fce6a7cdc03c75-1d45-4689-8b52-2b87d89d50cd)"><path d=" M 4.9881138305869035 -8.56513732729875 C 2.376860454419468 -8.56513732729875 0.2239324111906199 -7.833676440918317 0.2026239637589866 -7.82631534089648 L 0.12087701088490191 -7.798226932918418 L 0.12087701088490191 -7.711830864241068 C 0.12087701088490191 -3.132645511183056 2.7449154555113173 -1.2050058712541123 4.946271788357515 -0.3945100162181667 L 4.9881138305869035 -0.37901296354061564 L 5.029955872816293 -0.3945100162181667 C 7.231312205662489 -1.2050058712541123 9.855350650288905 -3.132645511183055 9.855350650288905 -7.711830864241067 L 9.855350650288905 -7.798226932918418 L 9.77360369741482 -7.82631534089648 C 9.752295249983188 -7.833676440918317 7.599367206754339 -8.56513732729875 4.9881138305869035 -8.56513732729875 Z" fill="none" transform="matrix(1,0,0,1,0,0)" fill-rule="nonzero" stroke-dasharray="none" stroke-miterlimit="10" stroke-linejoin="miter" stroke-linecap="butt" stroke-width="0.24214144808674287" stroke="#fff1cc"></path></g><g clip-path="url(#a617cf97d-e28f-47da-acc7-20cc25fce6a7cdc03c75-1d45-4689-8b52-2b87d89d50cd)"><path d=" M 4.9881138305869035 -8.44406660325538 C 2.3669810833375293 -8.44406660325538 0.24194773492827357 -7.711830864241069 0.24194773492827357 -7.711830864241069 C 0.24194773492827357 -3.3308140722972466 2.6933877553584584 -1.353002724324731 4.9881138305869035 -0.5078322139227645 Z" fill="#8c1627" transform="matrix(1,0,0,1,0,0)" fill-rule="nonzero"></path></g></g><g><path d=" M 0.4485 0.01949999999999985 L 0.4485 0.050999999999999934 Q 0.381 0.050999999999999934 0.36225 0.06374999999999997 Q 0.3435 0.07650000000000001 0.3645 0.10799999999999998 L 0.9585 0.9764999999999999 Q 0.9885 1.0185 1.0065 1.0334999999999999 Q 1.0245 1.0485 1.0545 1.0514999999999999 L 1.0545 1.083 Q 1.0245 1.0815 0.9675 1.07925 Q 0.9105 1.077 0.849 1.077 Q 0.7815 1.077 0.71175 1.07925 Q 0.642 1.0815 0.6075 1.083 L 0.6075 1.0514999999999999 Q 0.6765 1.0514999999999999 0.69675 1.04175 Q 0.717 1.032 0.6960000000000001 1.0005 L 0.1005 0.1259999999999999 Q 0.07200000000000001 0.08250000000000002 0.054 0.0674999999999999 Q 0.036000000000000004 0.05249999999999999 0.0045000000000000005 0.050999999999999934 L 0.0045000000000000005 0.01949999999999985 Q 0.036000000000000004 0.020999999999999908 0.09675 0.023249999999999993 Q 0.1575 0.025499999999999856 0.219 0.025499999999999856 Q 0.28650000000000003 0.025499999999999856 0.34875 0.023249999999999993 Q 0.41100000000000003 0.020999999999999908 0.4485 0.01949999999999985 M 0.462 0.5489999999999999 Q 0.462 0.5489999999999999 0.468 0.5685 Q 0.47400000000000003 0.588 0.47400000000000003 0.588 L 0.324 0.7935 Q 0.264 0.8744999999999999 0.2565 0.93075 Q 0.249 0.987 0.28275 1.01775 Q 0.3165 1.0485 0.3825 1.053 L 0.3825 1.083 Q 0.354 1.0815 0.3075 1.0807499999999999 Q 0.261 1.08 0.216 1.07925 Q 0.171 1.0785 0.1455 1.0785 Q 0.0555 1.0785 0.0075 1.083 L 0.0075 1.053 Q 0.06 1.035 0.114 0.98925 Q 0.168 0.9435 0.225 0.87 L 0.462 0.5489999999999999 M 0.987 0.020999999999999908 L 0.987 0.050999999999999934 Q 0.9375 0.0645 0.88875 0.10799999999999998 Q 0.84 0.15149999999999997 0.798 0.2084999999999999 L 0.555 0.5325 Q 0.555 0.5325 0.54975 0.5129999999999999 Q 0.5445 0.49349999999999994 0.5445 0.49349999999999994 L 0.6990000000000001 0.2849999999999999 Q 0.7845 0.1755 0.768 0.11549999999999994 Q 0.7515000000000001 0.05549999999999988 0.66 0.050999999999999934 L 0.66 0.020999999999999908 Q 0.7035 0.022499999999999964 0.7575000000000001 0.02400000000000002 Q 0.8115 0.025499999999999856 0.849 0.025499999999999856 Q 0.9390000000000001 0.025499999999999856 0.987 0.020999999999999908 M 1.961968505859375 0.01949999999999985 L 1.961968505859375 0.04949999999999988 Q 1.928968505859375 0.06299999999999994 1.894468505859375 0.1027499999999999 Q 1.8599685058593751 0.14249999999999996 1.8179685058593749 0.22349999999999992 L 1.534468505859375 0.7845 L 1.463968505859375 0.7845 L 1.112968505859375 0.1349999999999999 Q 1.085968505859375 0.08399999999999996 1.064218505859375 0.0674999999999999 Q 1.042468505859375 0.050999999999999934 1.025968505859375 0.050999999999999934 L 1.025968505859375 0.01949999999999985 Q 1.066468505859375 0.02400000000000002 1.109218505859375 0.025499999999999856 Q 1.151968505859375 0.026999999999999913 1.202968505859375 0.026999999999999913 Q 1.268968505859375 0.026999999999999913 1.345468505859375 0.02475000000000005 Q 1.421968505859375 0.022499999999999964 1.4849685058593751 0.01949999999999985 L 1.4849685058593751 0.050999999999999934 Q 1.447468505859375 0.050999999999999934 1.417468505859375 0.05699999999999994 Q 1.387468505859375 0.06299999999999994 1.375468505859375 0.07874999999999988 Q 1.363468505859375 0.09449999999999992 1.381468505859375 0.1289999999999999 L 1.6184685058593749 0.585 L 1.5719685058593749 0.645 L 1.726468505859375 0.3344999999999999 Q 1.781968505859375 0.22649999999999992 1.785718505859375 0.16499999999999992 Q 1.7894685058593751 0.10349999999999993 1.7557185058593752 0.07725000000000004 Q 1.721968505859375 0.050999999999999934 1.660468505859375 0.04949999999999988 L 1.660468505859375 0.01949999999999985 Q 1.711468505859375 0.020999999999999908 1.756468505859375 0.022499999999999964 Q 1.8014685058593751 0.02400000000000002 1.847968505859375 0.02400000000000002 Q 1.880968505859375 0.02400000000000002 1.910218505859375 0.022499999999999964 Q 1.939468505859375 0.020999999999999908 1.961968505859375 0.01949999999999985 M 1.640968505859375 0.5475 L 1.640968505859375 0.9239999999999999 Q 1.640968505859375 0.978 1.6492185058593751 1.005 Q 1.657468505859375 1.032 1.681468505859375 1.041 Q 1.705468505859375 1.05 1.753468505859375 1.053 L 1.753468505859375 1.083 Q 1.7129685058593749 1.08 1.6492185058593751 1.07925 Q 1.585468505859375 1.0785 1.522468505859375 1.0785 Q 1.451968505859375 1.0785 1.388968505859375 1.07925 Q 1.3259685058593749 1.08 1.289968505859375 1.083 L 1.289968505859375 1.053 Q 1.3379685058593749 1.05 1.361968505859375 1.041 Q 1.385968505859375 1.032 1.394218505859375 1.005 Q 1.402468505859375 0.978 1.402468505859375 0.9239999999999999 L 1.402468505859375 0.6164999999999999 L 1.532968505859375 0.7095 L 1.640968505859375 0.5475 M 2.806447265625 0.020999999999999908 L 2.806447265625 0.050999999999999934 L 2.293447265625 1.0485 L 2.449447265625 1.0485 Q 2.500447265625 1.0485 2.552197265625 1.032 Q 2.603947265625 1.0154999999999998 2.648197265625 0.978 Q 2.692447265625 0.9404999999999999 2.723947265625 0.87825 Q 2.755447265625 0.816 2.765947265625 0.723 L 2.800447265625 0.723 Q 2.795947265625 0.774 2.795947265625 0.855 Q 2.795947265625 0.8895 2.7974472656250002 0.9524999999999999 Q 2.7989472656250003 1.0154999999999998 2.806447265625 1.083 Q 2.723947265625 1.08 2.619697265625 1.07925 Q 2.515447265625 1.0785 2.432947265625 1.0785 Q 2.335447265625 1.0785 2.228947265625 1.07925 Q 2.122447265625 1.08 2.029447265625 1.083 L 2.029447265625 1.053 L 2.543947265625 0.05549999999999988 L 2.381947265625 0.05549999999999988 Q 2.306947265625 0.05549999999999988 2.243947265625 0.08324999999999994 Q 2.180947265625 0.11099999999999999 2.138947265625 0.17774999999999996 Q 2.096947265625 0.24449999999999994 2.081947265625 0.363 L 2.047447265625 0.363 Q 2.050447265625 0.34199999999999997 2.051197265625 0.31199999999999994 Q 2.051947265625 0.2819999999999999 2.051947265625 0.249 Q 2.051947265625 0.2144999999999999 2.049697265625 0.15149999999999997 Q 2.047447265625 0.08849999999999991 2.041447265625 0.020999999999999908 Q 2.116447265625 0.02400000000000002 2.210197265625 0.02475000000000005 Q 2.303947265625 0.025499999999999856 2.378947265625 0.025499999999999856 Q 2.479447265625 0.025499999999999856 2.593447265625 0.02475000000000005 Q 2.707447265625 0.02400000000000002 2.806447265625 0.020999999999999908 M 3.649388671875 0.0014999999999998348 Q 3.737888671875 0.0014999999999998348 3.785888671875 0.02024999999999988 Q 3.833888671875 0.038999999999999924 3.868388671875 0.05999999999999983 Q 3.8863886718750003 0.07050000000000001 3.897638671875 0.07574999999999998 Q 3.908888671875 0.08099999999999996 3.919388671875 0.08099999999999996 Q 3.9433886718749998 0.08099999999999996 3.952388671875 0.014999999999999902 L 3.986888671875 0.014999999999999902 Q 3.985388671875 0.04349999999999987 3.983138671875 0.08324999999999994 Q 3.9808886718750003 0.123 3.9801386718750003 0.1874999999999999 Q 3.9793886718750002 0.2519999999999999 3.9793886718750002 0.357 L 3.944888671875 0.357 Q 3.938888671875 0.2789999999999999 3.908888671875 0.2054999999999999 Q 3.878888671875 0.1319999999999999 3.824138671875 0.08474999999999999 Q 3.7693886718750003 0.03749999999999987 3.689888671875 0.03749999999999987 Q 3.617888671875 0.03749999999999987 3.571388671875 0.07799999999999985 Q 3.524888671875 0.11849999999999994 3.524888671875 0.1904999999999999 Q 3.524888671875 0.25049999999999994 3.554888671875 0.2932499999999999 Q 3.584888671875 0.33599999999999997 3.642638671875 0.37649999999999995 Q 3.700388671875 0.4169999999999999 3.782888671875 0.474 Q 3.854888671875 0.5205 3.911888671875 0.567 Q 3.968888671875 0.6134999999999999 4.003388671875 0.6719999999999999 Q 4.037888671875 0.7304999999999999 4.037888671875 0.8114999999999999 Q 4.037888671875 0.9105 3.986138671875 0.975 Q 3.934388671875 1.0394999999999999 3.850388671875 1.07175 Q 3.766388671875 1.1039999999999999 3.665888671875 1.1039999999999999 Q 3.572888671875 1.1039999999999999 3.517388671875 1.0859999999999999 Q 3.461888671875 1.068 3.424388671875 1.0485 Q 3.391388671875 1.0274999999999999 3.373388671875 1.0274999999999999 Q 3.349388671875 1.0274999999999999 3.340388671875 1.0935 L 3.305888671875 1.0935 Q 3.308888671875 1.0574999999999999 3.309638671875 1.0095 Q 3.310388671875 0.9615 3.311138671875 0.88425 Q 3.311888671875 0.8069999999999999 3.311888671875 0.6884999999999999 L 3.346388671875 0.6884999999999999 Q 3.352388671875 0.7875 3.380138671875 0.87375 Q 3.407888671875 0.96 3.465638671875 1.0125 Q 3.523388671875 1.065 3.619388671875 1.065 Q 3.697388671875 1.065 3.751388671875 1.023 Q 3.805388671875 0.981 3.805388671875 0.897 Q 3.805388671875 0.8039999999999999 3.742388671875 0.74325 Q 3.679388671875 0.6824999999999999 3.580388671875 0.6179999999999999 Q 3.509888671875 0.5714999999999999 3.448388671875 0.5249999999999999 Q 3.386888671875 0.4784999999999999 3.350138671875 0.4185 Q 3.313388671875 0.35849999999999993 3.313388671875 0.2759999999999999 Q 3.313388671875 0.1815 3.360638671875 0.12074999999999991 Q 3.407888671875 0.05999999999999983 3.485138671875 0.030749999999999833 Q 3.562388671875 0.0014999999999998348 3.649388671875 0.0014999999999998348 M 4.952865234375 0.020999999999999908 Q 4.946865234375 0.08699999999999997 4.944615234375 0.14849999999999997 Q 4.942365234375 0.20999999999999996 4.942365234375 0.243 Q 4.942365234375 0.2729999999999999 4.943865234375 0.29999999999999993 Q 4.945365234375 0.32699999999999996 4.946865234375 0.345 L 4.912365234375 0.345 Q 4.897365234375 0.23549999999999993 4.865865234375 0.17174999999999996 Q 4.834365234375 0.10799999999999998 4.784115234375 0.08174999999999999 Q 4.733865234375 0.05549999999999988 4.666365234375 0.05549999999999988 L 4.604865234375 0.05549999999999988 Q 4.559865234375 0.05549999999999988 4.538115234375 0.06299999999999994 Q 4.516365234375 0.07050000000000001 4.508865234375 0.09224999999999994 Q 4.501365234375 0.11399999999999999 4.501365234375 0.16199999999999992 L 4.501365234375 0.942 Q 4.501365234375 0.9884999999999999 4.508865234375 1.011 Q 4.516365234375 1.0334999999999999 4.538115234375 1.041 Q 4.559865234375 1.0485 4.604865234375 1.0485 L 4.678365234375 1.0485 Q 4.745865234375 1.0485 4.797615234375 1.01925 Q 4.849365234375 0.99 4.886115234375 0.9195 Q 4.922865234375 0.849 4.942365234375 0.729 L 4.976865234375 0.729 Q 4.972365234375 0.7769999999999999 4.972365234375 0.855 Q 4.972365234375 0.8895 4.973865234375 0.9524999999999999 Q 4.975365234375 1.0154999999999998 4.982865234375 1.083 Q 4.906365234375 1.08 4.810365234375 1.07925 Q 4.714365234375 1.0785 4.639365234375 1.0785 Q 4.588365234375 1.0785 4.504365234375 1.0785 Q 4.420365234375 1.0785 4.325865234375 1.07925 Q 4.231365234375 1.08 4.150365234375 1.083 L 4.150365234375 1.053 Q 4.198365234375 1.05 4.222365234375 1.041 Q 4.246365234375 1.032 4.254615234375 1.005 Q 4.262865234375 0.978 4.262865234375 0.9239999999999999 L 4.262865234375 0.17999999999999994 Q 4.262865234375 0.12449999999999994 4.254615234375 0.09824999999999995 Q 4.246365234375 0.07199999999999984 4.221615234375 0.062249999999999917 Q 4.196865234375 0.05249999999999999 4.150365234375 0.050999999999999934 L 4.150365234375 0.020999999999999908 Q 4.231365234375 0.022499999999999964 4.325865234375 0.02400000000000002 Q 4.420365234375 0.025499999999999856 4.504365234375 0.025499999999999856 Q 4.588365234375 0.025499999999999856 4.639365234375 0.025499999999999856 Q 4.708365234375 0.025499999999999856 4.796115234375 0.02475000000000005 Q 4.8838652343749995 0.02400000000000002 4.952865234375 0.020999999999999908 M 4.718865234375 0.5339999999999999 Q 4.718865234375 0.5339999999999999 4.718865234375 0.5489999999999999 Q 4.718865234375 0.564 4.718865234375 0.564 L 4.456365234375 0.564 Q 4.456365234375 0.564 4.456365234375 0.5489999999999999 Q 4.456365234375 0.5339999999999999 4.456365234375 0.5339999999999999 L 4.718865234375 0.5339999999999999 M 4.762365234375 0.33599999999999997 Q 4.756365234375 0.4215 4.757115234375 0.4664999999999999 Q 4.757865234375 0.5115 4.757865234375 0.5489999999999999 Q 4.757865234375 0.5865 4.759365234375 0.6315 Q 4.760865234375 0.6764999999999999 4.766865234375 0.762 L 4.732365234375 0.762 Q 4.724865234375 0.7095 4.704615234375 0.6645 Q 4.684365234375 0.6194999999999999 4.646865234375 0.59175 Q 4.609365234375 0.564 4.549365234375 0.564 L 4.549365234375 0.5339999999999999 Q 4.609365234375 0.5339999999999999 4.645365234375 0.501 Q 4.681365234375 0.46799999999999997 4.700865234375 0.4222499999999999 Q 4.720365234375 0.37649999999999995 4.727865234375 0.33599999999999997 L 4.762365234375 0.33599999999999997 M 5.645823486328125 0 Q 5.744823486328125 0 5.808573486328125 0.029249999999999998 Q 5.872323486328125 0.058499999999999996 5.921823486328125 0.09749999999999992 Q 5.951823486328125 0.12 5.967573486328125 0.1027499999999999 Q 5.983323486328125 0.08549999999999991 5.989323486328125 0.020999999999999908 L 6.023823486328125 0.020999999999999908 Q 6.020823486328125 0.0794999999999999 6.019323486328125 0.16274999999999995 Q 6.017823486328125 0.246 6.017823486328125 0.3839999999999999 L 5.983323486328125 0.3839999999999999 Q 5.9758234863281245 0.31499999999999995 5.963823486328125 0.26625 Q 5.951823486328125 0.21749999999999992 5.930823486328125 0.17999999999999994 Q 5.909823486328125 0.14249999999999996 5.870823486328125 0.11249999999999993 Q 5.833323486328125 0.07499999999999996 5.783823486328125 0.05699999999999994 Q 5.734323486328125 0.038999999999999924 5.680323486328125 0.038999999999999924 Q 5.599323486328125 0.038999999999999924 5.542323486328125 0.08174999999999999 Q 5.485323486328125 0.12449999999999994 5.450073486328125 0.19799999999999995 Q 5.414823486328125 0.27149999999999996 5.398323486328125 0.3637499999999999 Q 5.381823486328125 0.45599999999999996 5.381823486328125 0.5549999999999999 Q 5.381823486328125 0.6555 5.399073486328125 0.7477499999999999 Q 5.416323486328125 0.84 5.453073486328125 0.9119999999999999 Q 5.489823486328125 0.984 5.548323486328125 1.026 Q 5.606823486328125 1.068 5.686323486328125 1.068 Q 5.735823486328125 1.068 5.786073486328125 1.04925 Q 5.836323486328125 1.0305 5.872323486328125 0.9944999999999999 Q 5.930823486328125 0.9495 5.951823486328125 0.8827499999999999 Q 5.972823486328125 0.816 5.983323486328125 0.705 L 6.017823486328125 0.705 Q 6.017823486328125 0.8474999999999999 6.019323486328125 0.9352499999999999 Q 6.020823486328125 1.023 6.023823486328125 1.083 L 5.989323486328125 1.083 Q 5.983323486328125 1.0185 5.969073486328125 1.002 Q 5.954823486328125 0.9854999999999999 5.921823486328125 1.0065 Q 5.866323486328125 1.0454999999999999 5.804073486328125 1.0747499999999999 Q 5.741823486328125 1.1039999999999999 5.644323486328125 1.1039999999999999 Q 5.485323486328125 1.1039999999999999 5.366073486328125 1.0394999999999999 Q 5.246823486328125 0.975 5.180823486328125 0.8534999999999999 Q 5.114823486328125 0.732 5.114823486328125 0.5609999999999999 Q 5.114823486328125 0.3929999999999999 5.183073486328125 0.2669999999999999 Q 5.251323486328125 0.1409999999999999 5.370573486328125 0.07050000000000001 Q 5.489823486328125 0 5.645823486328125 0 M 7.11434912109375 0.020999999999999908 L 7.11434912109375 0.050999999999999934 Q 7.06634912109375 0.05699999999999994 7.04159912109375 0.07574999999999998 Q 7.01684912109375 0.09449999999999992 7.00934912109375 0.1349999999999999 Q 7.00184912109375 0.1755 7.00184912109375 0.249 L 7.00184912109375 0.6465 Q 7.00184912109375 0.744 6.98834912109375 0.825 Q 6.97484912109375 0.9059999999999999 6.94034912109375 0.9644999999999999 Q 6.90134912109375 1.029 6.82634912109375 1.0665 Q 6.7513491210937495 1.1039999999999999 6.6358491210937505 1.1039999999999999 Q 6.56684912109375 1.1039999999999999 6.4948491210937505 1.08825 Q 6.42284912109375 1.0725 6.36584912109375 1.029 Q 6.31784912109375 0.9884999999999999 6.29234912109375 0.9375 Q 6.26684912109375 0.8865 6.25784912109375 0.81675 Q 6.24884912109375 0.7469999999999999 6.24884912109375 0.651 L 6.24884912109375 0.17999999999999994 Q 6.24884912109375 0.12449999999999994 6.24059912109375 0.09824999999999995 Q 6.23234912109375 0.07199999999999984 6.20834912109375 0.062249999999999917 Q 6.18434912109375 0.05249999999999999 6.13634912109375 0.050999999999999934 L 6.13634912109375 0.020999999999999908 Q 6.17384912109375 0.022499999999999964 6.23759912109375 0.02400000000000002 Q 6.30134912109375 0.025499999999999856 6.37034912109375 0.025499999999999856 Q 6.43934912109375 0.025499999999999856 6.50309912109375 0.02400000000000002 Q 6.56684912109375 0.022499999999999964 6.60884912109375 0.020999999999999908 L 6.60884912109375 0.050999999999999934 Q 6.55784912109375 0.05249999999999999 6.53159912109375 0.062249999999999917 Q 6.50534912109375 0.07199999999999984 6.49634912109375 0.09824999999999995 Q 6.48734912109375 0.12449999999999994 6.48734912109375 0.17999999999999994 L 6.48734912109375 0.7454999999999999 Q 6.48734912109375 0.846 6.50534912109375 0.91425 Q 6.52334912109375 0.9824999999999999 6.56909912109375 1.017 Q 6.61484912109375 1.0514999999999999 6.69434912109375 1.0514999999999999 Q 6.79934912109375 1.0514999999999999 6.85859912109375 1.002 Q 6.9178491210937505 0.9524999999999999 6.94259912109375 0.8647499999999999 Q 6.96734912109375 0.7769999999999999 6.96734912109375 0.663 L 6.96734912109375 0.2669999999999999 Q 6.96734912109375 0.1845 6.95684912109375 0.14024999999999999 Q 6.94634912109375 0.09599999999999997 6.91559912109375 0.07650000000000001 Q 6.88484912109375 0.05699999999999994 6.82184912109375 0.050999999999999934 L 6.82184912109375 0.020999999999999908 Q 6.85034912109375 0.022499999999999964 6.89684912109375 0.02400000000000002 Q 6.94334912109375 0.025499999999999856 6.98384912109375 0.025499999999999856 Q 7.01984912109375 0.025499999999999856 7.05509912109375 0.02400000000000002 Q 7.09034912109375 0.022499999999999964 7.11434912109375 0.020999999999999908 M 7.192387939453125 0.020999999999999908 Q 7.229887939453125 0.022499999999999964 7.293637939453125 0.02400000000000002 Q 7.357387939453125 0.025499999999999856 7.420387939453125 0.025499999999999856 Q 7.492387939453125 0.025499999999999856 7.559887939453125 0.02400000000000002 Q 7.627387939453125 0.022499999999999964 7.655887939453125 0.022499999999999964 Q 7.864387939453125 0.022499999999999964 7.967887939453125 0.09075 Q 8.071387939453125 0.15899999999999992 8.071387939453125 0.2835 Q 8.071387939453125 0.3344999999999999 8.050387939453126 0.38625 Q 8.029387939453125 0.43799999999999994 7.979137939453125 0.48224999999999996 Q 7.928887939453125 0.5265 7.841887939453125 0.55275 Q 7.754887939453125 0.579 7.622887939453125 0.579 L 7.478887939453125 0.579 L 7.478887939453125 0.5489999999999999 L 7.607887939453125 0.5489999999999999 Q 7.696387939453125 0.5489999999999999 7.742137939453125 0.51525 Q 7.787887939453125 0.48149999999999993 7.805137939453125 0.4252499999999999 Q 7.822387939453125 0.369 7.822387939453125 0.29999999999999993 Q 7.822387939453125 0.1815 7.780387939453125 0.11624999999999996 Q 7.7383879394531245 0.050999999999999934 7.636387939453125 0.050999999999999934 Q 7.577887939453125 0.050999999999999934 7.560637939453125 0.07650000000000001 Q 7.543387939453125 0.10199999999999998 7.543387939453125 0.17999999999999994 L 7.543387939453125 0.9239999999999999 Q 7.543387939453125 0.978 7.551637939453125 1.005 Q 7.559887939453125 1.032 7.583887939453125 1.041 Q 7.607887939453125 1.05 7.655887939453125 1.053 L 7.655887939453125 1.083 Q 7.615387939453125 1.08 7.553887939453125 1.07925 Q 7.492387939453125 1.0785 7.429387939453125 1.0785 Q 7.357387939453125 1.0785 7.293637939453125 1.07925 Q 7.229887939453125 1.08 7.192387939453125 1.083 L 7.192387939453125 1.053 Q 7.240387939453125 1.05 7.264387939453125 1.041 Q 7.288387939453125 1.032 7.296637939453125 1.005 Q 7.304887939453125 0.978 7.304887939453125 0.9239999999999999 L 7.304887939453125 0.17999999999999994 Q 7.304887939453125 0.12449999999999994 7.296637939453125 0.09824999999999995 Q 7.288387939453125 0.07199999999999984 7.263637939453125 0.062249999999999917 Q 7.238887939453125 0.05249999999999999 7.192387939453125 0.050999999999999934 L 7.192387939453125 0.020999999999999908 M 7.475887939453125 0.5535 Q 7.540387939453125 0.5549999999999999 7.587637939453125 0.5595 Q 7.634887939453125 0.564 7.670887939453125 0.56775 Q 7.706887939453125 0.5714999999999999 7.735387939453125 0.573 Q 7.871887939453125 0.585 7.937137939453125 0.6315 Q 8.002387939453126 0.6779999999999999 8.021887939453125 0.7709999999999999 L 8.056387939453124 0.9255 Q 8.069887939453125 0.9854999999999999 8.084887939453125 1.0095 Q 8.099887939453126 1.0334999999999999 8.128387939453125 1.0334999999999999 Q 8.147887939453124 1.032 8.160637939453125 1.02375 Q 8.173387939453125 1.0154999999999998 8.188387939453126 0.999 L 8.209387939453125 1.017 Q 8.168887939453125 1.0635 8.122387939453125 1.08375 Q 8.075887939453125 1.1039999999999999 8.009887939453126 1.1039999999999999 Q 7.928887939453125 1.1039999999999999 7.876387939453125 1.0695 Q 7.823887939453125 1.035 7.807387939453125 0.942 L 7.780387939453125 0.792 Q 7.769887939453125 0.729 7.754887939453125 0.68175 Q 7.739887939453125 0.6345 7.713637939453125 0.6067499999999999 Q 7.687387939453125 0.579 7.640887939453125 0.579 L 7.478887939453125 0.579 L 7.475887939453125 0.5535 M 8.693912841796875 0.020999999999999908 L 8.693912841796875 0.050999999999999934 Q 8.645912841796875 0.05249999999999999 8.621162841796876 0.062249999999999917 Q 8.596412841796875 0.07199999999999984 8.588912841796875 0.09824999999999995 Q 8.581412841796874 0.12449999999999994 8.581412841796874 0.17999999999999994 L 8.581412841796874 0.9239999999999999 Q 8.581412841796874 0.978 8.589662841796875 1.005 Q 8.597912841796875 1.032 8.621912841796876 1.041 Q 8.645912841796875 1.05 8.693912841796875 1.053 L 8.693912841796875 1.083 Q 8.653412841796875 1.08 8.591912841796875 1.07925 Q 8.530412841796876 1.0785 8.467412841796875 1.0785 Q 8.393912841796874 1.0785 8.331662841796875 1.07925 Q 8.269412841796875 1.08 8.230412841796875 1.083 L 8.230412841796875 1.053 Q 8.278412841796875 1.05 8.302412841796874 1.041 Q 8.326412841796875 1.032 8.334662841796876 1.005 Q 8.342912841796876 0.978 8.342912841796876 0.9239999999999999 L 8.342912841796876 0.17999999999999994 Q 8.342912841796876 0.12449999999999994 8.334662841796876 0.09824999999999995 Q 8.326412841796875 0.07199999999999984 8.301662841796874 0.062249999999999917 Q 8.276912841796875 0.05249999999999999 8.230412841796875 0.050999999999999934 L 8.230412841796875 0.020999999999999908 Q 8.269412841796875 0.022499999999999964 8.331662841796875 0.02400000000000002 Q 8.393912841796874 0.025499999999999856 8.467412841796875 0.025499999999999856 Q 8.530412841796876 0.025499999999999856 8.591912841796875 0.02400000000000002 Q 8.653412841796875 0.022499999999999964 8.693912841796875 0.020999999999999908 M 9.706377685546874 0.020999999999999908 Q 9.700377685546876 0.09749999999999992 9.698127685546876 0.16799999999999993 Q 9.695877685546876 0.23849999999999993 9.695877685546876 0.2759999999999999 Q 9.695877685546876 0.30899999999999994 9.697377685546876 0.33899999999999997 Q 9.698877685546876 0.369 9.700377685546876 0.3899999999999999 L 9.665877685546874 0.3899999999999999 Q 9.641877685546875 0.2639999999999999 9.605127685546876 0.1904999999999999 Q 9.568377685546874 0.11699999999999999 9.517377685546876 0.08624999999999994 Q 9.466377685546876 0.05549999999999988 9.397377685546875 0.05549999999999988 L 9.362877685546875 0.05549999999999988 L 9.362877685546875 0.9119999999999999 Q 9.362877685546875 0.972 9.375627685546874 1.002 Q 9.388377685546875 1.032 9.422877685546876 1.04175 Q 9.457377685546875 1.0514999999999999 9.523377685546874 1.053 L 9.523377685546874 1.083 Q 9.476877685546874 1.0815 9.399627685546875 1.08 Q 9.322377685546876 1.0785 9.238377685546874 1.0785 Q 9.155877685546875 1.0785 9.082377685546875 1.08 Q 9.008877685546874 1.0815 8.963877685546874 1.083 L 8.963877685546874 1.053 Q 9.031377685546875 1.0514999999999999 9.065877685546875 1.04175 Q 9.100377685546874 1.032 9.112377685546875 1.002 Q 9.124377685546875 0.972 9.124377685546875 0.9119999999999999 L 9.124377685546875 0.05549999999999988 L 9.091377685546876 0.05549999999999988 Q 9.022377685546875 0.05549999999999988 8.971377685546875 0.08624999999999994 Q 8.920377685546875 0.11699999999999999 8.884377685546875 0.18974999999999997 Q 8.848377685546875 0.26249999999999996 8.821377685546874 0.3899999999999999 L 8.786877685546875 0.3899999999999999 Q 8.789877685546875 0.369 8.790627685546875 0.33899999999999997 Q 8.791377685546875 0.30899999999999994 8.791377685546875 0.2759999999999999 Q 8.791377685546875 0.23849999999999993 8.789127685546875 0.16799999999999993 Q 8.786877685546875 0.09749999999999992 8.780877685546875 0.020999999999999908 Q 8.849877685546875 0.022499999999999964 8.931627685546875 0.02400000000000002 Q 9.013377685546875 0.025499999999999856 9.095877685546874 0.025499999999999856 Q 9.178377685546875 0.025499999999999856 9.244377685546874 0.025499999999999856 Q 9.311877685546875 0.025499999999999856 9.393627685546875 0.025499999999999856 Q 9.475377685546874 0.025499999999999856 9.557877685546876 0.02400000000000002 Q 9.640377685546875 0.022499999999999964 9.706377685546874 0.020999999999999908 M 10.67092236328125 0.01949999999999985 L 10.67092236328125 0.04949999999999988 Q 10.63792236328125 0.06299999999999994 10.60342236328125 0.1027499999999999 Q 10.56892236328125 0.14249999999999996 10.52692236328125 0.22349999999999992 L 10.24342236328125 0.7845 L 10.17292236328125 0.7845 L 9.82192236328125 0.1349999999999999 Q 9.79492236328125 0.08399999999999996 9.77317236328125 0.0674999999999999 Q 9.75142236328125 0.050999999999999934 9.73492236328125 0.050999999999999934 L 9.73492236328125 0.01949999999999985 Q 9.77542236328125 0.02400000000000002 9.81817236328125 0.025499999999999856 Q 9.86092236328125 0.026999999999999913 9.91192236328125 0.026999999999999913 Q 9.97792236328125 0.026999999999999913 10.05442236328125 0.02475000000000005 Q 10.13092236328125 0.022499999999999964 10.19392236328125 0.01949999999999985 L 10.19392236328125 0.050999999999999934 Q 10.15642236328125 0.050999999999999934 10.12642236328125 0.05699999999999994 Q 10.09642236328125 0.06299999999999994 10.08442236328125 0.07874999999999988 Q 10.07242236328125 0.09449999999999992 10.09042236328125 0.1289999999999999 L 10.32742236328125 0.585 L 10.28092236328125 0.645 L 10.43542236328125 0.3344999999999999 Q 10.49092236328125 0.22649999999999992 10.49467236328125 0.16499999999999992 Q 10.49842236328125 0.10349999999999993 10.46467236328125 0.07725000000000004 Q 10.43092236328125 0.050999999999999934 10.36942236328125 0.04949999999999988 L 10.36942236328125 0.01949999999999985 Q 10.42042236328125 0.020999999999999908 10.46542236328125 0.022499999999999964 Q 10.51042236328125 0.02400000000000002 10.55692236328125 0.02400000000000002 Q 10.58992236328125 0.02400000000000002 10.61917236328125 0.022499999999999964 Q 10.64842236328125 0.020999999999999908 10.67092236328125 0.01949999999999985 M 10.34992236328125 0.5475 L 10.34992236328125 0.9239999999999999 Q 10.34992236328125 0.978 10.35817236328125 1.005 Q 10.36642236328125 1.032 10.39042236328125 1.041 Q 10.41442236328125 1.05 10.46242236328125 1.053 L 10.46242236328125 1.083 Q 10.42192236328125 1.08 10.35817236328125 1.07925 Q 10.29442236328125 1.0785 10.23142236328125 1.0785 Q 10.16092236328125 1.0785 10.09792236328125 1.07925 Q 10.03492236328125 1.08 9.99892236328125 1.083 L 9.99892236328125 1.053 Q 10.04692236328125 1.05 10.07092236328125 1.041 Q 10.09492236328125 1.032 10.10317236328125 1.005 Q 10.11142236328125 0.978 10.11142236328125 0.9239999999999999 L 10.11142236328125 0.6164999999999999 L 10.24192236328125 0.7095 L 10.34992236328125 0.5475 M 11.524357177734375 0.020999999999999908 L 11.524357177734375 0.050999999999999934 Q 11.476357177734375 0.05249999999999999 11.451607177734376 0.062249999999999917 Q 11.426857177734375 0.07199999999999984 11.419357177734375 0.09824999999999995 Q 11.411857177734374 0.12449999999999994 11.411857177734374 0.17999999999999994 L 11.411857177734374 0.9239999999999999 Q 11.411857177734374 0.978 11.420107177734375 1.005 Q 11.428357177734375 1.032 11.452357177734376 1.041 Q 11.476357177734375 1.05 11.524357177734375 1.053 L 11.524357177734375 1.083 Q 11.483857177734375 1.08 11.422357177734375 1.07925 Q 11.360857177734376 1.0785 11.297857177734375 1.0785 Q 11.224357177734374 1.0785 11.162107177734375 1.07925 Q 11.099857177734375 1.08 11.060857177734375 1.083 L 11.060857177734375 1.053 Q 11.108857177734375 1.05 11.132857177734374 1.041 Q 11.156857177734375 1.032 11.165107177734376 1.005 Q 11.173357177734376 0.978 11.173357177734376 0.9239999999999999 L 11.173357177734376 0.17999999999999994 Q 11.173357177734376 0.12449999999999994 11.165107177734376 0.09824999999999995 Q 11.156857177734375 0.07199999999999984 11.132107177734374 0.062249999999999917 Q 11.107357177734375 0.05249999999999999 11.060857177734375 0.050999999999999934 L 11.060857177734375 0.020999999999999908 Q 11.099857177734375 0.022499999999999964 11.162107177734375 0.02400000000000002 Q 11.224357177734374 0.025499999999999856 11.297857177734375 0.025499999999999856 Q 11.360857177734376 0.025499999999999856 11.422357177734375 0.02400000000000002 Q 11.483857177734375 0.022499999999999964 11.524357177734375 0.020999999999999908 M 12.613322021484375 0.020999999999999908 L 12.613322021484375 0.050999999999999934 Q 12.565322021484375 0.05699999999999994 12.541322021484374 0.07574999999999998 Q 12.517322021484375 0.09449999999999992 12.509072021484375 0.1349999999999999 Q 12.500822021484375 0.1755 12.500822021484375 0.249 L 12.500822021484375 1.0859999999999999 Q 12.482822021484376 1.0845 12.464072021484375 1.0845 Q 12.445322021484374 1.0845 12.424322021484375 1.0859999999999999 L 11.773322021484375 0.2609999999999999 L 11.773322021484375 0.837 Q 11.773322021484375 0.9195 11.782322021484376 0.96375 Q 11.791322021484374 1.008 11.822072021484376 1.02675 Q 11.852822021484375 1.0454999999999999 11.918822021484376 1.053 L 11.918822021484376 1.083 Q 11.890322021484375 1.08 11.843822021484375 1.07925 Q 11.797322021484375 1.0785 11.756822021484375 1.0785 Q 11.722322021484375 1.0785 11.686322021484376 1.07925 Q 11.650322021484374 1.08 11.626322021484375 1.083 L 11.626322021484375 1.053 Q 11.674322021484375 1.0454999999999999 11.698322021484374 1.0274999999999999 Q 11.722322021484375 1.0095 11.730572021484376 0.9682499999999999 Q 11.738822021484374 0.9269999999999999 11.738822021484374 0.855 L 11.738822021484374 0.17999999999999994 Q 11.738822021484374 0.12449999999999994 11.730572021484376 0.09824999999999995 Q 11.722322021484375 0.07199999999999984 11.697572021484374 0.062249999999999917 Q 11.672822021484375 0.05249999999999999 11.626322021484375 0.050999999999999934 L 11.626322021484375 0.020999999999999908 Q 11.650322021484374 0.022499999999999964 11.686322021484376 0.02400000000000002 Q 11.722322021484375 0.025499999999999856 11.756822021484375 0.025499999999999856 Q 11.792822021484374 0.025499999999999856 11.825822021484376 0.02400000000000002 Q 11.858822021484375 0.022499999999999964 11.885822021484374 0.020999999999999908 L 12.466322021484375 0.7364999999999999 L 12.466322021484375 0.2669999999999999 Q 12.466322021484375 0.1845 12.457322021484375 0.14024999999999999 Q 12.448322021484374 0.09599999999999997 12.417572021484375 0.07650000000000001 Q 12.386822021484376 0.05699999999999994 12.320822021484375 0.050999999999999934 L 12.320822021484375 0.020999999999999908 Q 12.349322021484374 0.022499999999999964 12.395822021484374 0.02400000000000002 Q 12.442322021484376 0.025499999999999856 12.482822021484376 0.025499999999999856 Q 12.518822021484375 0.025499999999999856 12.554072021484375 0.02400000000000002 Q 12.589322021484374 0.022499999999999964 12.613322021484375 0.020999999999999908 M 13.241770751953124 0 Q 13.340770751953125 0 13.404520751953125 0.029249999999999998 Q 13.468270751953124 0.058499999999999996 13.517770751953124 0.09749999999999992 Q 13.547770751953125 0.12 13.563520751953124 0.1027499999999999 Q 13.579270751953125 0.08549999999999991 13.585270751953125 0.020999999999999908 L 13.619770751953125 0.020999999999999908 Q 13.616770751953124 0.0794999999999999 13.615270751953124 0.16274999999999995 Q 13.613770751953124 0.246 13.613770751953124 0.3839999999999999 L 13.579270751953125 0.3839999999999999 Q 13.571770751953125 0.31499999999999995 13.559770751953124 0.26625 Q 13.547770751953125 0.21749999999999992 13.526770751953125 0.17999999999999994 Q 13.505770751953126 0.14249999999999996 13.466770751953124 0.11249999999999993 Q 13.429270751953124 0.07499999999999996 13.379770751953124 0.05699999999999994 Q 13.330270751953124 0.038999999999999924 13.276270751953126 0.038999999999999924 Q 13.195270751953124 0.038999999999999924 13.138270751953126 0.08174999999999999 Q 13.081270751953125 0.12449999999999994 13.046020751953124 0.19799999999999995 Q 13.010770751953125 0.27149999999999996 12.994270751953126 0.3637499999999999 Q 12.977770751953125 0.45599999999999996 12.977770751953125 0.5549999999999999 Q 12.977770751953125 0.6555 12.995020751953126 0.7477499999999999 Q 13.012270751953125 0.84 13.049020751953124 0.9119999999999999 Q 13.085770751953126 0.984 13.144270751953124 1.026 Q 13.202770751953125 1.068 13.282270751953124 1.068 Q 13.331770751953124 1.068 13.382020751953124 1.04925 Q 13.432270751953125 1.0305 13.468270751953124 0.9944999999999999 Q 13.526770751953125 0.9495 13.547770751953125 0.8827499999999999 Q 13.568770751953124 0.816 13.579270751953125 0.705 L 13.613770751953124 0.705 Q 13.613770751953124 0.8474999999999999 13.615270751953124 0.9352499999999999 Q 13.616770751953124 1.023 13.619770751953125 1.083 L 13.585270751953125 1.083 Q 13.579270751953125 1.0185 13.565020751953124 1.002 Q 13.550770751953126 0.9854999999999999 13.517770751953124 1.0065 Q 13.462270751953126 1.0454999999999999 13.400020751953125 1.0747499999999999 Q 13.337770751953125 1.1039999999999999 13.240270751953124 1.1039999999999999 Q 13.081270751953125 1.1039999999999999 12.962020751953125 1.0394999999999999 Q 12.842770751953125 0.975 12.776770751953125 0.8534999999999999 Q 12.710770751953126 0.732 12.710770751953126 0.5609999999999999 Q 12.710770751953126 0.3929999999999999 12.779020751953125 0.2669999999999999 Q 12.847270751953126 0.1409999999999999 12.966520751953125 0.07050000000000001 Q 13.085770751953126 0 13.241770751953124 0 M 13.90629638671875 0.873 Q 13.96479638671875 0.873 13.99929638671875 0.9037499999999999 Q 14.03379638671875 0.9345 14.03379638671875 0.9884999999999999 Q 14.03379638671875 1.0425 13.99929638671875 1.07325 Q 13.96479638671875 1.1039999999999999 13.90629638671875 1.1039999999999999 Q 13.84779638671875 1.1039999999999999 13.81329638671875 1.07325 Q 13.77879638671875 1.0425 13.77879638671875 0.9884999999999999 Q 13.77879638671875 0.9345 13.81329638671875 0.9037499999999999 Q 13.84779638671875 0.873 13.90629638671875 0.873" fill="#0e0904" fill-rule="nonzero"></path></g><g></g></g><defs><clipPath id="SvgjsClipPath1001"><path d=" M 0 -8.686132285093601 h 9.976446315448067 v 8.436132285093601 h -9.976446315448067 Z"></path></clipPath><clipPath id="a617cf97d-e28f-47da-acc7-20cc25fce6a7cdc03c75-1d45-4689-8b52-2b87d89d50cd"><path d=" M 0 -0.25 L 9.976421374332276 -0.25 L 9.976421374332276 -8.686208051342122 L 0 -8.686208051342122 Z"></path></clipPath></defs></svg>