<svg xmlns="http://www.w3.org/2000/svg" version="1.1" xmlns:xlink="http://www.w3.org/1999/xlink" viewBox="0 0 5.718022459646653 1.7801138364142761"><g transform="matrix(1,0,0,1,2.1546275896597353,0.7238423305777463)"><rect width="5.718022459646653" height="5.718022459646653" x="-2.1546275896597358" y="-2.6927966421939344" fill="#004a80"></rect><g clip-path="url(#SvgjsClipPath1002)"><g clip-path="url(#a05e85c05-3fbd-4086-ba84-1e72fa17bfb384039832-afa5-4c9b-acbd-44975a3e152f)"><path d=" M -1.1489547123270785 -0.4489249965647165 C -1.5410116826865885 -0.4489249965647165 -1.864255092818309 -0.33910250991208224 -1.8674543707663467 -0.33799730480276025 L -1.879727964348818 -0.3337800747803471 L -1.879727964348818 -0.32080845691830395 C -1.879727964348818 0.3667163741149645 -1.4857514272204855 0.6561346910324338 -1.1552369308432249 0.7778235904377889 L -1.1489547123270785 0.7801503380363618 L -1.1426724938109318 0.7778235904377889 C -0.8121579974336715 0.6561346910324338 -0.41818146030533887 0.3667163741149646 -0.41818146030533887 -0.32080845691830395 L -0.41818146030533887 -0.33378007478034705 L -0.43045505388781025 -0.3379973048027602 C -0.4336543318358477 -0.33910250991208224 -0.7568977419675682 -0.4489249965647165 -1.1489547123270785 -0.4489249965647165" fill="#000000" transform="matrix(1,0,0,1,0,0)" fill-rule="nonzero"></path></g><g clip-path="url(#a05e85c05-3fbd-4086-ba84-1e72fa17bfb384039832-afa5-4c9b-acbd-44975a3e152f)"><path d=" M -1.1489547123270785 -0.4489249965647165 C -1.5410116826865885 -0.4489249965647165 -1.864255092818309 -0.33910250991208224 -1.8674543707663467 -0.33799730480276025 L -1.879727964348818 -0.3337800747803471 L -1.879727964348818 -0.32080845691830395 C -1.879727964348818 0.3667163741149645 -1.4857514272204855 0.6561346910324338 -1.1552369308432249 0.7778235904377889 L -1.1489547123270785 0.7801503380363618 L -1.1426724938109318 0.7778235904377889 C -0.8121579974336715 0.6561346910324338 -0.41818146030533887 0.3667163741149646 -0.41818146030533887 -0.32080845691830395 L -0.41818146030533887 -0.33378007478034705 L -0.43045505388781025 -0.3379973048027602 C -0.4336543318358477 -0.33910250991208224 -0.7568977419675682 -0.4489249965647165 -1.1489547123270785 -0.4489249965647165 Z" fill="none" transform="matrix(1,0,0,1,0,0)" fill-rule="nonzero" stroke-dasharray="none" stroke-miterlimit="10" stroke-linejoin="miter" stroke-linecap="butt" stroke-width="0.036355431227699374" stroke="#ffe398"></path></g><g clip-path="url(#a05e85c05-3fbd-4086-ba84-1e72fa17bfb384039832-afa5-4c9b-acbd-44975a3e152f)"><path d=" M -1.1489547123270785 -0.43074728095086695 C -1.5424949842806785 -0.43074728095086695 -1.8615502487349682 -0.32080845691830406 -1.8615502487349682 -0.32080845691830406 C -1.8615502487349682 0.33696308919821516 -1.4934878629857398 0.6339142514660637 -1.1489547123270785 0.7608092486232255 Z" fill="#800000" transform="matrix(1,0,0,1,0,0)" fill-rule="nonzero"></path></g></g><g><path d=" M 0.09285731152479988 0.002785719345744009 L 0.1527502774582958 0.10678590825351986 L 0.21264324339179172 0.002785719345744009 L 0.3101434204928316 0.002785719345744009 L 0.20660751814267972 0.1699288800903838 L 0.3064291280318396 0.33242917525878357 L 0.20892895093079972 0.33242917525878357 L 0.1527502774582958 0.23307185192724772 L 0.09657160398579187 0.33242917525878357 L -0.0013928596728719981 0.33242917525878357 L 0.09842875021628787 0.1699288800903838 L -0.005107152133863993 0.002785719345744009 L 0.09285731152479988 0.002785719345744009 M 0.4015997110576138 0.002785719345744009 L 0.46056410387586166 0.13742882105670381 L 0.5209213563669816 0.002785719345744009 L 0.6193501065832694 0.002785719345744009 L 0.5055998999653897 0.22332183421714372 L 0.5055998999653897 0.33242917525878357 L 0.41552830778633376 0.33242917525878357 L 0.41552830778633376 0.22239326110189572 L 0.30363524739894987 0.002785719345744009 L 0.4015997110576138 0.002785719345744009 M 0.6295716653284603 0.26510762440330365 L 0.7790719368833882 0.08171443414182389 L 0.6365359636928203 0.08171443414182389 L 0.6365359636928203 0.002785719345744009 L 0.8881792779250279 0.002785719345744009 L 0.8881792779250279 0.07010727020122393 L 0.7479647375225802 0.2535004604627037 L 0.890964997270772 0.2535004604627037 L 0.890964997270772 0.33242917525878357 L 0.6295716653284603 0.33242917525878357 L 0.6295716653284603 0.26510762440330365 M 1.2410300339442255 0.11050020071451186 Q 1.2410300339442255 0.11050020071451186 1.2331371624646175 0.10585733513827186 Q 1.2252442909850094 0.10121446956203187 1.2122442673715375 0.09541088759173189 Q 1.1992442437580655 0.08960730562143188 1.1839227873564735 0.08496444004519191 Q 1.1686013309548815 0.08032157446895188 1.1537441611109136 0.08032157446895188 Q 1.1421369971703137 0.08032157446895188 1.1347084122483295 0.08403586692994389 Q 1.1272798273263456 0.08775015939093589 1.1272798273263456 0.09657160398579187 Q 1.1272798273263456 0.10492876202302387 1.1347084122483295 0.11003591415688788 Q 1.1421369971703137 0.11514306629075186 1.1558334506202215 0.11932164530936784 Q 1.1695299040701295 0.12350022432798385 1.1885656529327135 0.12953594957709583 Q 1.2192085657358975 0.13882168072957582 1.2414943205018494 0.15089313122779982 Q 1.2637800752678015 0.1629645817260238 1.2758515257660255 0.18176818730979577 Q 1.2879229762642495 0.20057179289356775 1.2879229762642495 0.23167899225437572 Q 1.2879229762642495 0.2613933319423117 1.2772443854388973 0.28158979719895566 Q 1.2665657946135456 0.3017862624555996 1.2484586188662095 0.3138577129538236 Q 1.2303514431188736 0.3259291634520476 1.2080656883529215 0.33126845886472356 Q 1.1857799335869696 0.3366077542773996 1.1625656057057696 0.3366077542773996 Q 1.1388869912669457 0.3366077542773996 1.1131190873188137 0.3317327454223476 Q 1.0873511833706817 0.32685773656729555 1.0632082823742337 0.3182684352512516 Q 1.0390653813777857 0.30967913393520763 1.0191010593999537 0.2980719699946076 L 1.0581011302403698 0.21867896864090372 Q 1.0581011302403698 0.21867896864090372 1.0673868613928497 0.2242504073323917 Q 1.0766725925453298 0.2298218460238797 1.0919940489469218 0.2367861443882397 Q 1.1073155053485135 0.2437504427525997 1.1261191109322857 0.24932188144408768 Q 1.1449227165160576 0.25489332013557564 1.1639584653786414 0.25489332013557564 Q 1.1788156352226096 0.25489332013557564 1.1846192171929095 0.2509468843957717 Q 1.1904227991632095 0.24700044865596768 1.1904227991632095 0.2405004368492317 Q 1.1904227991632095 0.2307504191391277 1.1802084948954816 0.22541112372645172 Q 1.1699941906277536 0.22007182831377572 1.1535120178321017 0.2151968194587237 Q 1.1370298450364495 0.21032181060367172 1.1170655230586177 0.20382179879693574 Q 1.0882797564859297 0.19407178108683176 1.0697082941809697 0.18176818730979577 Q 1.0511368318760097 0.16946459353275978 1.0423153872811537 0.15251813417948382 Q 1.0334939426862977 0.13557167482620783 1.0334939426862977 0.11142877382975985 Q 1.0334939426862977 0.07475013577746392 1.0506725453183856 0.05014294822339194 Q 1.0678511479504738 0.02553576066931995 1.0959404846867256 0.012767880334659976 Q 1.1240298214229776 0 1.1565298804566575 0 Q 1.1806727814531055 0 1.2031906794978695 0.005803581970300009 Q 1.2257085775426335 0.011607163940600018 1.2454407562416534 0.01996432197783199 Q 1.2651729349406735 0.02832148001506396 1.2800301047846414 0.035750064937047965 L 1.2410300339442255 0.11050020071451186 M 1.5641755183723154 0.2535004604627037 L 1.5641755183723154 0.33242917525878357 L 1.3292465202145718 0.33242917525878357 L 1.3292465202145718 0.002785719345744009 L 1.5599969393536994 0.002785719345744009 L 1.5599969393536994 0.08171443414182389 L 1.4197823989512517 0.08171443414182389 L 1.4197823989512517 0.12814308990422385 L 1.5395683308182435 0.12814308990422385 L 1.5395683308182435 0.20150036600881574 L 1.4197823989512517 0.20150036600881574 L 1.4197823989512517 0.2535004604627037 L 1.5641755183723154 0.2535004604627037 M 1.5846034468005095 0.16482172795651978 Q 1.5846034468005095 0.13464310171095983 1.5959784674622974 0.10562519185945987 Q 1.6073534881240854 0.07660728200795991 1.6291749563324134 0.052928667569135945 Q 1.6509964245407414 0.02925005313031198 1.6823357671803612 0.015089313122780001 Q 1.7136751098199812 0.0009285731152480214 1.7531394672180212 0.0009285731152480214 Q 1.800496696095669 0.0009285731152480214 1.835782474475093 0.020660751814267964 Q 1.871068252854517 0.04039293051328796 1.888246855486605 0.07289298954696793 L 1.8190681584006292 0.12210736465511185 Q 1.813032433151517 0.10585733513827186 1.801657412489729 0.09703589054341588 Q 1.7902823918279411 0.0882144459485599 1.7770502249356572 0.08473229676637989 Q 1.763818058043373 0.0812501475841999 1.7512823209875252 0.0812501475841999 Q 1.7317822855673173 0.0812501475841999 1.7176215455597852 0.0889108757849959 Q 1.7034608055522533 0.09657160398579187 1.6944072176785852 0.10910734104163985 Q 1.6853536298049172 0.12164307809748784 1.6809429075074893 0.13696453449907983 Q 1.6765321852100612 0.1522859909006718 1.6765321852100612 0.1676074473022638 Q 1.6765321852100612 0.18478604993435177 1.6816393373439253 0.20057179289356775 Q 1.6867464894777893 0.21635753585278372 1.6964965071878932 0.22866112962981971 Q 1.7062465248979972 0.2409647234068557 1.7204072649055293 0.24792902177121567 Q 1.7345680049130612 0.25489332013557564 1.7522108941027732 0.25489332013557564 Q 1.764746631158621 0.25489332013557564 1.777746654772093 0.2509468843957717 Q 1.790746678385565 0.24700044865596768 1.8014252692109172 0.2381790040611117 Q 1.812103860036269 0.2293575594662557 1.8176752987277571 0.21450038962228773 L 1.891496861389973 0.25860761259656767 Q 1.881746843679869 0.2827505135930156 1.858996802356293 0.2999291162251036 Q 1.8362467610327171 0.3171077188571916 1.807460994460029 0.3261613067308596 Q 1.7786752278873412 0.3352148946045276 1.750353747872277 0.3352148946045276 Q 1.7136751098199812 0.3352148946045276 1.6832643402956093 0.32058986803937156 Q 1.6528535707712373 0.3059648414742156 1.6307999592840974 0.28158979719895566 Q 1.6087463477969572 0.25721475292369567 1.5966748972987335 0.22680398339932373 Q 1.5846034468005095 0.19639321387495176 1.5846034468005095 0.16482172795651978 M 2.06884457819825 0.3352148946045276 Q 2.0293802208002103 0.3352148946045276 2.001058740785146 0.3222148709910556 Q 1.9727372607700822 0.3092148473775836 1.9548622283015582 0.28646480605400765 Q 1.9369871958330342 0.26371476473043165 1.9286300377958023 0.2342325683213077 Q 1.9202728797585702 0.20475037191218373 1.9202728797585702 0.1722503128785038 L 1.9202728797585702 0.002785719345744009 L 2.01080875849525 0.002785719345744009 L 2.01080875849525 0.1722503128785038 Q 2.01080875849525 0.18850034239534377 2.014058764398618 0.20335751223931173 Q 2.017308770301986 0.2182146820832797 2.024273068666346 0.2298218460238797 Q 2.0312373670307062 0.2414290099644797 2.0421481011348703 0.24816116505002767 Q 2.053058835239034 0.25489332013557564 2.06884457819825 0.25489332013557564 Q 2.08509460771509 0.25489332013557564 2.096237485098066 0.24816116505002767 Q 2.107380362481042 0.2414290099644797 2.11411251756659 0.2295897027450677 Q 2.120844672652138 0.21775039552565573 2.124094678555506 0.20289322568168774 Q 2.127344684458874 0.18803605583771976 2.127344684458874 0.1722503128785038 L 2.127344684458874 0.002785719345744009 L 2.217880563195554 0.002785719345744009 L 2.217880563195554 0.1722503128785038 Q 2.217880563195554 0.20660751814267975 2.2088269753218857 0.2363218578306157 Q 2.199773387448218 0.2660361975185517 2.181666211700882 0.28832195228450364 Q 2.163559035953546 0.3106077070504556 2.135469699217294 0.3229113008274916 Q 2.107380362481042 0.3352148946045276 2.06884457819825 0.3352148946045276 M 2.271264675927906 0.33242917525878357 L 2.271264675927906 0.002785719345744009 L 2.4226220937133296 0.002785719345744009 Q 2.4467649947097776 0.002785719345744009 2.4671936032452337 0.012535737055847984 Q 2.4876222117806894 0.02228575476595196 2.5024793816246573 0.038767927561603965 Q 2.5173365514686257 0.055250100357255916 2.5254615662270457 0.07567870889271189 Q 2.5335865809854656 0.09610731742816789 2.5335865809854656 0.11700021252124784 Q 2.5335865809854656 0.13603596138383184 2.5280151422939774 0.1536788505735438 Q 2.5224437036024896 0.1713217397632558 2.5117651127771374 0.18594676632841176 Q 2.5010865219517857 0.20057179289356775 2.4862293521078174 0.21125038371891974 L 2.5558723357514173 0.33242917525878357 L 2.4565150124198816 0.33242917525878357 L 2.3984791927168816 0.2312147056967517 L 2.3618005546645855 0.2312147056967517 L 2.3618005546645855 0.33242917525878357 L 2.271264675927906 0.33242917525878357 M 2.3618005546645855 0.1522859909006718 L 2.4189078012523377 0.1522859909006718 Q 2.4244792399438255 0.1522859909006718 2.4295863920776894 0.1481074118820558 Q 2.4346935442115534 0.14392883286343983 2.4381756933937337 0.13603596138383184 Q 2.4416578425759137 0.12814308990422385 2.4416578425759137 0.11700021252124784 Q 2.4416578425759137 0.10539304858064788 2.4377114068361094 0.09773232037985188 Q 2.4337649710963056 0.09007159217905589 2.4279613891260055 0.0858930131604399 Q 2.4221578071557057 0.08171443414182389 2.4165863684642175 0.08171443414182389 L 2.3618005546645855 0.08171443414182389 L 2.3618005546645855 0.1522859909006718 M 2.5860452944364596 0.33242917525878357 L 2.5860452944364596 0.002785719345744009 L 2.676581173173139 0.002785719345744009 L 2.676581173173139 0.33242917525878357 L 2.5860452944364596 0.33242917525878357 M 2.9913751671245152 0.08171443414182389 L 2.8966607093692196 0.08171443414182389 L 2.8966607093692196 0.33242917525878357 L 2.8061248306325397 0.33242917525878357 L 2.8061248306325397 0.08171443414182389 L 2.7109460863196198 0.08171443414182389 L 2.7109460863196198 0.002785719345744009 L 2.9913751671245152 0.002785719345744009 L 2.9913751671245152 0.08171443414182389 M 3.0926005184027416 0.002785719345744009 L 3.1515649112209894 0.13742882105670381 L 3.2119221637121096 0.002785719345744009 L 3.310350913928397 0.002785719345744009 L 3.1966007073105174 0.22332183421714372 L 3.1966007073105174 0.33242917525878357 L 3.1065291151314613 0.33242917525878357 L 3.1065291151314613 0.22239326110189572 L 2.9946360547440776 0.002785719345744009 L 3.0926005184027416 0.002785719345744009" fill="#ffffff" fill-rule="nonzero"></path></g><g></g></g><defs><clipPath id="SvgjsClipPath1002"><path d=" M -1.8978765956176855 -0.46709133653569623 h 1.4978765956176856 v 1.266611848330176 h -1.4978765956176856 Z"></path></clipPath><clipPath id="a05e85c05-3fbd-4086-ba84-1e72fa17bfb384039832-afa5-4c9b-acbd-44975a3e152f"><path d=" M -1.8978765956176855 0.7995205117944798 L -0.40000374469148925 0.7995205117944798 L -0.40000374469148925 -0.4671027121785664 L -1.8978765956176855 -0.4671027121785664 Z"></path></clipPath></defs></svg>